#!OML:ASF F:\VICON\USERDATA\Patient Classification 1\PLAYGROUND\JustinFriday\JustinFriday.ASF
:FULLY-SPECIFIED
:DEGREES
1231
root 36.031 29.31 -8.89665 130.726 -83.6416 -126.814
lowerback 37.4888 0.367573 -0.759863
upperback 6.32162 -0.68233 0.347852
thorax -11.5012 -0.655747 1.13407
lowerneck -3.03073 -15.9125 -3.17979
upperneck -22.1281 -19.7846 24.1514
head -3.13088 -11.781 7.93633
rclavicle -2.34566e-014 -7.15625e-015
rhumerus 92.7309 -4.11462 -76.3158
rradius 47.784
rwrist 10.8889
rhand -3.18707 -21.7114
rfingers 7.12502
rthumb 22.5344 -50.4164
lclavicle -2.34566e-014 -7.15625e-015
lhumerus 45.5219 -26.7479 52.5524
lradius 33.3046
lwrist -21.5477
lhand 3.47669 2.00644
lfingers 7.12502
lthumb 28.916 29.7846
rfemur -40.1591 1.30036 28.5284
rtibia 68.1517
rfoot -28.463 -14.9878
rtoes 11.2943
lfemur -44.1027 12.4111 -19.4756
ltibia 55.7295
lfoot -36.7013 -6.71853
ltoes 3.66931
1232
root 35.9963 29.3017 -8.89024 131.132 -83.603 -127.568
lowerback 37.1931 0.540761 -0.812356
upperback 6.38534 -0.467996 0.455891
thorax -11.3261 -0.559378 1.18594
lowerneck -2.81171 -16.1879 -3.3577
upperneck -21.9091 -20.15 24.2244
head -3.02261 -11.9334 7.94925
rclavicle 0 7.95139e-015
rhumerus 92.5665 -4.05327 -76.72
rradius 47.4452
rwrist 12.1137
rhand -1.78992 -20.8219
rfingers 7.12502
rthumb 23.8749 -49.3579
lclavicle 0 7.95139e-015
lhumerus 44.9312 -27.621 51.7221
lradius 36.0168
lwrist -20.4427
lhand 3.71493 0.959196
lfingers 7.12502
lthumb 29.1435 28.6982
rfemur -39.1496 1.21824 28.4672
rtibia 68.5434
rfoot -27.3001 -13.8999
rtoes 14.6528
lfemur -44.1016 12.9536 -19.614
ltibia 56.6152
lfoot -37.0564 -4.8346
ltoes -2.10333
1233
root 35.9553 29.2477 -8.88264 130.801 -83.5388 -127.591
lowerback 37.0344 0.455465 -0.610261
upperback 6.40089 -0.504312 0.377728
thorax -11.2517 -0.581324 1.0087
lowerneck -2.98284 -16.3805 -3.15449
upperneck -21.2962 -20.483 23.9397
head -2.83072 -12.0295 7.74825
rclavicle -2.22639e-014 1.59028e-015
rhumerus 92.2817 -3.88151 -76.8534
rradius 47.2467
rwrist 12.0732
rhand -2.10069 -20.82
rfingers 7.12502
rthumb 23.5768 -49.3947
lclavicle -2.22639e-014 1.59028e-015
lhumerus 43.9886 -28.1966 50.8417
lradius 39.0853
lwrist -19.1702
lhand 3.1245 -0.769695
lfingers 7.12502
lthumb 28.5795 27.0656
rfemur -38.1945 1.08717 28.5087
rtibia 68.7597
rfoot -25.7588 -13.4206
rtoes 16.9419
lfemur -44.5634 15.8563 -20.3275
ltibia 57.6456
lfoot -37.4358 -7.7058
ltoes -1.99956
1234
root 35.9206 29.2206 -8.87427 128.751 -83.3918 -125.821
lowerback 36.7308 0.470303 -0.183901
upperback 6.498 -0.327741 0.347143
thorax -11.035 -0.515259 0.675472
lowerneck -3.22968 -16.5948 -2.29446
upperneck -21.0653 -20.8374 23.3202
head -2.86702 -12.1848 7.41105
rclavicle 8.34896e-015 -7.15625e-015
rhumerus 91.936 -4.26995 -76.454
rradius 47.1647
rwrist 10.9041
rhand -3.64511 -21.7242
rfingers 7.12502
rthumb 22.0947 -50.4819
lclavicle 8.34896e-015 -7.15625e-015
lhumerus 43.2698 -28.8564 50.0134
lradius 42.6456
lwrist -18.2547
lhand 2.45291 -3.16958
lfingers 7.12502
lthumb 27.9377 24.7719
rfemur -37.1004 0.881857 28.7472
rtibia 68.4515
rfoot -23.6036 -13.1153
rtoes 18.9229
lfemur -44.7599 16.7978 -20.2627
ltibia 58.5526
lfoot -37.0258 -10.9793
ltoes 3.42465
1235
root 35.8912 29.2096 -8.86812 128.051 -83.3955 -125.353
lowerback 36.1578 0.938738 -0.222041
upperback 6.70958 0.275041 0.616732
thorax -10.5948 -0.244959 0.73768
lowerneck -2.88698 -16.9621 -2.15256
upperneck -21.5831 -21.2536 23.3792
head -3.04047 -12.4439 7.46157
rclavicle -5.96354e-015 1.19271e-014
rhumerus 91.6476 -5.1243 -75.7309
rradius 47.0674
rwrist 10.6208
rhand -4.49775 -21.9237
rfingers 7.12502
rthumb 21.2759 -50.7759
lclavicle -5.96354e-015 1.19271e-014
lhumerus 43.1395 -29.8639 49.022
lradius 46.5948
lwrist -17.1479
lhand 0.748149 -5.69583
lfingers 7.12502
lthumb 26.3068 22.5
rfemur -35.9716 0.647431 28.7499
rtibia 67.7569
rfoot -20.8915 -12.8995
rtoes 19.3375
lfemur -44.823 16.6816 -20.088
ltibia 59.3808
lfoot -35.9387 -14.1073
ltoes 11.9025
1236
root 35.8591 29.2049 -8.86406 128.562 -83.4399 -126.101
lowerback 35.6798 1.29606 -0.37237
upperback 6.77437 0.707613 0.855968
thorax -10.3572 -0.0417445 0.900618
lowerneck -2.12701 -17.2723 -2.75431
upperneck -21.9753 -21.5589 23.8369
head -3.10667 -12.6282 7.74074
rclavicle -1.98785e-015 7.95139e-015
rhumerus 91.2807 -5.36135 -75.5818
rradius 46.9174
rwrist 11.3613
rhand -4.51529 -21.4624
rfingers 7.12502
rthumb 21.2591 -50.3165
lclavicle -1.98785e-015 7.95139e-015
lhumerus 42.6354 -30.6741 47.9684
lradius 50.7211
lwrist -16.1312
lhand -2.0813 -6.90279
lfingers 7.12502
lthumb 23.5954 21.6695
rfemur -34.7381 0.580191 28.6007
rtibia 66.69
rfoot -18.3776 -13.2943
rtoes 16.9308
lfemur -44.8763 16.9539 -20.0966
ltibia 60.07
lfoot -34.9202 -16.2127
ltoes 17.3113
